<svg width="24" height="24" viewBox="0 0 48 48" fill="none" xmlns="http://www.w3.org/2000/svg">
<path d="M27.0312 4.82986C36.5523 4.93224 44.7425 12.0987 45.8686 21.7733C47.0972 32.3182 39.5724 41.8392 28.9764 43.0166C28.2598 43.119 27.4919 43.1701 26.7753 43.1701H26.5705C19.916 43.0678 13.9781 39.1774 10.8556 33.2395L2 38.3584C2 29.1956 5.94152 14.1462 16.8959 7.59405C16.9471 7.59405 16.9983 7.54286 17.0495 7.54286C17.1006 7.49167 17.1518 7.49168 17.203 7.44049C19.4041 6.16077 21.9124 5.29056 24.6254 4.98342C25.342 4.88105 26.1098 4.82986 26.8265 4.82986H27.0312Z" fill="#0064FF"/>
</svg>
