<svg width="currentWidth" height="currentHeight" viewBox="0 0 43 42" fill="none" xmlns="http://www.w3.org/2000/svg">
<rect width="43" height="42" rx="21" fill="#FE3839"/>
<path d="M10.4952 14.0581L10.3433 14.6458C10.3051 14.7937 10.2839 14.9455 10.2802 15.0983L10 26.75L10.1305 28.4703C10.1549 28.7923 10.257 29.1036 10.4279 29.3776L10.8572 30.0658L10.8981 30.1449C11.0585 30.4552 11.2974 30.718 11.591 30.9073L12.0001 31.1711L12.6367 31.5815C12.7831 31.6759 12.9411 31.7507 13.1069 31.8042L13.4151 31.9035C13.6134 31.9675 13.8204 32 14.0287 32H27.8275C28.1291 32 28.4267 31.9318 28.6982 31.8005L29.711 31.3108C29.9025 31.2182 30.0779 31.0957 30.2307 30.9479L31.0842 30.1225C31.3106 29.9036 31.4821 29.6343 31.5847 29.3366L31.8908 28.4483C31.9631 28.2386 32 28.0184 32 27.7966V26.2444C32 25.4554 31.3604 24.8158 30.5714 24.8158H30.2542C29.6404 24.8158 29.1429 25.3133 29.1429 25.9271C29.1429 26.1047 29.1003 26.2797 29.0187 26.4375L28.5714 27.3026L28.3001 27.6963C28.1034 27.9816 27.836 28.2109 27.5241 28.3617L26.6982 28.7611C26.4267 28.8923 26.1291 28.9605 25.8276 28.9605H19.1429H16.3734C16.1266 28.9605 15.882 28.9149 15.6518 28.8258L14.9492 28.554C14.6999 28.4576 14.4725 28.3122 14.2804 28.1264L14.0132 27.868C13.8161 27.6773 13.6602 27.4482 13.5554 27.1947L13.2948 26.5645C13.1945 26.3221 13.1429 26.0624 13.1429 25.8001V18.7368V17.4139C13.1429 17.1922 13.1798 16.9719 13.2521 16.7622L13.5582 15.874C13.6609 15.5762 13.8323 15.3069 14.0587 15.088L14.43 14.7289C14.7088 14.4593 15.0599 14.2766 15.4406 14.2029L16.0976 14.0759C16.2228 14.0517 16.3499 14.0395 16.4774 14.0395H20.8572H25.5227C25.6501 14.0395 25.7773 14.0517 25.9025 14.0759L26.7636 14.2424C27.0141 14.2909 27.2531 14.3868 27.4675 14.5251L27.664 14.6518C27.8858 14.7948 28.0771 14.9803 28.2269 15.1976L28.3704 15.4057C28.5034 15.5987 28.6014 15.8134 28.6601 16.0403L28.8259 16.6819C28.8467 16.7621 28.8572 16.8445 28.8572 16.9273C28.8572 17.4689 29.2962 17.9079 29.8377 17.9079H30.4286C31.2964 17.9079 32 17.2043 32 16.3365V15.2657C32 15.0034 31.9484 14.7437 31.8482 14.5013L31.5314 13.7355C31.4632 13.5705 31.3731 13.4153 31.2637 13.2742L30.7464 12.6072C30.6304 12.4576 30.4936 12.3251 30.3403 12.2139L29.6389 11.7052C29.4993 11.6039 29.3471 11.5211 29.1862 11.4589L28.3482 11.1347C28.1181 11.0457 27.8734 11 27.6266 11H24.8572H18.5715H14.7631C14.6357 11 14.5085 11.0122 14.3833 11.0364L13.5222 11.203C13.2717 11.2514 13.0327 11.3474 12.8182 11.4856L11.807 12.1376C11.5579 12.2982 11.3476 12.5123 11.1913 12.7642L10.7321 13.5043C10.6256 13.6759 10.5458 13.8626 10.4952 14.0581Z" fill="white"/>
</svg>
