<svg width="104" height="102" viewBox="0 0 104 102" fill="none" xmlns="http://www.w3.org/2000/svg">
<rect width="104" height="102" rx="51" fill="#3182F7"/>
<path d="M52.0135 78.5074C36.8256 78.5074 24.5134 66.1954 24.5134 51.0074C24.5134 35.8197 36.8256 23.5076 52.0135 23.5076C67.2012 23.5076 79.5135 35.8197 79.5135 51.0074C79.5135 66.1954 67.2012 78.5074 52.0135 78.5074ZM52.0135 73.0074C64.1638 73.0074 74.0135 63.1578 74.0135 51.0074C74.0135 38.8573 64.1638 29.0076 52.0135 29.0076C39.8632 29.0076 30.0134 38.8573 30.0134 51.0074C30.0134 63.1578 39.8632 73.0074 52.0135 73.0074ZM42.3884 56.5074H57.5135C58.2728 56.5074 58.8885 55.892 58.8885 55.1324C58.8885 54.3732 58.2728 53.7574 57.5135 53.7574H46.5135C42.7165 53.7574 39.6384 50.6796 39.6384 46.8824C39.6384 43.0856 42.7165 40.0076 46.5135 40.0076H49.2635V34.5076H54.7635V40.0076H61.6385V45.5074H46.5135C45.754 45.5074 45.1384 46.1232 45.1384 46.8824C45.1384 47.642 45.754 48.2574 46.5135 48.2574H57.5135C61.3104 48.2574 64.3885 51.3355 64.3885 55.1324C64.3885 58.9296 61.3104 62.0074 57.5135 62.0074H54.7635V67.5074H49.2635V62.0074H42.3884V56.5074Z" fill="white"/>
</svg>
